#!OML:ASF E:\Mandelcareful walks\Project 1\Capture day 1\Session 1\Subject1.ASF
:FULLY-SPECIFIED
:DEGREES
187
root -20.0725 15.4421 3.25329 -290.158 79.5998 53.6535
lowerback 15.5203 2.38196 -5.04875
upperback 8.01601 2.86805 -1.75636
thorax -0.308846 1.51142 0.556074
lowerneck -28.878 2.92282 -1.07727
upperneck 22.319 7.16058 -8.17692
head 12.5158 1.97399 -1.59764
rclavicle 2.74323e-014 2.3059e-014
rhumerus -34.9913 21.8053 -89.3245
rradius 63.6047
rwrist -16.8094
rhand -10.7869 -31.3277
rfingers 7.12502
rthumb 15.2258 -60.7474
lclavicle 2.74323e-014 2.3059e-014
lhumerus -41.0565 -26.5986 93.0746
lradius 75.3561
lwrist -3.21778
lhand -28.6564 -23.9984
lfingers 7.12502
lthumb -2.01982 5.97177
rfemur -38.7585 -10.8505 5.24873
rtibia 55.3001
rfoot -28.9181 -2.21
rtoes -5.76382
lfemur -49.7513 15.9564 -20.6271
ltibia 39.7921
lfoot -8.15925 12.6185
ltoes -2.62351
188
root -19.962 15.379 3.16581 -290.961 79.7887 52.834
lowerback 15.8812 2.40779 -5.1505
upperback 8.07442 2.8757 -1.93787
thorax -0.429169 1.52343 0.407383
lowerneck -29.0813 2.77017 -1.37462
upperneck 21.899 6.85281 -7.62997
head 12.3315 1.89381 -1.39519
rclavicle -1.55052e-014 -9.54166e-015
rhumerus -34.691 22.0452 -89.413
rradius 63.5396
rwrist -15.6427
rhand -11.4494 -30.3572
rfingers 7.12502
rthumb 14.5876 -59.8242
lclavicle -1.55052e-014 -9.54166e-015
lhumerus -40.2834 -28.9856 92.5188
lradius 74.8449
lwrist -3.32421
lhand -29.3137 -24.9971
lfingers 7.12502
lthumb -2.65469 4.96616
rfemur -38.599 -11.2242 5.0811
rtibia 55.8409
rfoot -29.4328 -1.97494
rtoes -6.5562
lfemur -50.4879 16.6093 -20.9335
ltibia 41.6593
lfoot -7.94069 11.9439
ltoes -2.66993
189
root -19.8496 15.33 3.0688 -290.477 79.665 53.2269
lowerback 16.2722 2.4508 -5.73739
upperback 8.0394 2.82575 -2.11653
thorax -0.67757 1.49587 0.537633
lowerneck -29.2111 2.57419 -1.61628
upperneck 21.5205 6.55256 -7.33808
head 12.1709 1.78948 -1.29888
rclavicle -4.37326e-015 4.49253e-014
rhumerus -34.483 22.4822 -89.3578
rradius 63.3075
rwrist -14.5205
rhand -11.8668 -29.1741
rfingers 7.12502
rthumb 14.1854 -58.6698
lclavicle -4.37326e-015 4.49253e-014
lhumerus -39.7495 -30.6498 92.0668
lradius 74.7666
lwrist -3.63142
lhand -29.5244 -26.1433
lfingers 7.12502
lthumb -2.85813 3.81728
rfemur -38.4848 -11.7858 4.44526
rtibia 56.2838
rfoot -29.852 -1.66603
rtoes -7.543
lfemur -51.3039 17.131 -21.6912
ltibia 43.5115
lfoot -8.07788 11.327
ltoes -3.69576
190
root -19.7358 15.2839 2.96177 -289.149 79.4265 54.4361
lowerback 17.629 2.57196 -7.0318
upperback 7.32557 2.60565 -1.95634
thorax -2.1813 1.38955 1.3927
lowerneck -29.159 2.52418 -1.84587
upperneck 21.6371 6.61496 -7.3885
head 12.2067 1.78927 -1.26971
rclavicle -2.78299e-014 -2.34566e-014
rhumerus -35.382 23.5807 -89.2411
rradius 63.1223
rwrist -13.6099
rhand -11.961 -28.4673
rfingers 7.12502
rthumb 14.0946 -57.9693
lclavicle -2.78299e-014 -2.34566e-014
lhumerus -40.504 -31.6423 92.7015
lradius 74.8603
lwrist -3.98602
lhand -29.475 -26.6579
lfingers 7.12502
lthumb -2.81042 3.30329
rfemur -38.3039 -12.4453 3.554
rtibia 56.6786
rfoot -30.2031 -1.27301
rtoes -8.64436
lfemur -52.2058 17.448 -22.6675
ltibia 45.3094
lfoot -8.29354 10.8127
ltoes -6.23439
191
root -19.6171 15.2389 2.85872 -289.183 79.7444 54.3591
lowerback 17.4297 2.47495 -6.95467
upperback 7.69697 2.55597 -2.27005
thorax -1.65721 1.36541 1.04581
lowerneck -29.3649 2.4053 -1.84393
upperneck 20.9735 6.20191 -6.83183
head 11.9388 1.69712 -1.13319
rclavicle 1.63003e-014 -3.97569e-015
rhumerus -34.4308 23.8396 -89.1959
rradius 62.6393
rwrist -13.0086
rhand -11.4881 -28.7941
rfingers 7.12502
rthumb 14.5503 -58.2639
lclavicle 1.63003e-014 -3.97569e-015
lhumerus -39.4024 -33.8425 91.5804
lradius 74.8916
lwrist -3.95611
lhand -29.3687 -26.7947
lfingers 7.12502
lthumb -2.70783 3.16785
rfemur -37.9187 -12.7524 3.32213
rtibia 57.0682
rfoot -30.5821 -1.07914
rtoes -9.43124
lfemur -53.0069 17.6503 -22.807
ltibia 47.0791
lfoot -8.53111 10.2937
ltoes -7.68757
192
root -19.4983 15.1931 2.77007 -289.509 80.6318 53.9745
lowerback 18.434 2.50667 -7.22636
upperback 7.19713 2.41159 -1.94264
thorax -2.72744 1.30958 1.52095
lowerneck -29.3721 2.39349 -2.06721
upperneck 21.1115 6.15559 -6.37506
head 11.9626 1.71299 -0.934885
rclavicle -3.97569e-015 -1.11319e-014
rhumerus -35.0188 24.5363 -89.1857
rradius 62.3347
rwrist -12.7591
rhand -10.5385 -29.6726
rfingers 7.12502
rthumb 15.465 -59.074
lclavicle -3.97569e-015 -1.11319e-014
lhumerus -39.8542 -35.5609 91.6726
lradius 75.1266
lwrist -4.0776
lhand -29.2521 -27.0732
lfingers 7.12502
lthumb -2.59518 2.89072
rfemur -37.5264 -12.8342 3.74301
rtibia 57.5052
rfoot -30.8797 -1.26782
rtoes -10.2446
lfemur -53.8148 17.6834 -22.2549
ltibia 48.7959
lfoot -8.69071 9.67287
ltoes -8.89957
193
root -19.3797 15.1393 2.67923 -290.632 81.4799 52.6369
lowerback 18.1228 2.46452 -7.02452
upperback 7.399 2.44208 -1.9676
thorax -2.34498 1.31833 1.39228
lowerneck -29.538 2.31874 -1.97598
upperneck 20.7236 5.84353 -5.94616
head 11.8131 1.64682 -0.845124
rclavicle 1.98785e-015 3.53837e-014
rhumerus -34.3855 24.6949 -89.0643
rradius 61.8485
rwrist -12.2376
rhand -9.82618 -30.112
rfingers 7.12502
rthumb 16.151 -59.4591
lclavicle 1.98785e-015 3.53837e-014
lhumerus -38.7825 -38.105 90.3764
lradius 75.4758
lwrist -3.47308
lhand -28.817 -27.2412
lfingers 7.12502
lthumb -2.17498 2.72751
rfemur -37.4559 -12.803 4.16108
rtibia 58.0726
rfoot -31.007 -1.40703
rtoes -11.3926
lfemur -54.7703 17.7687 -21.7929
ltibia 50.4812
lfoot -8.88256 9.16441
ltoes -8.30278
194
root -19.2461 15.0967 2.57284 -290.197 82.0546 53.1484
lowerback 18.036 2.43318 -7.26271
upperback 7.6429 2.40698 -1.88237
thorax -2.04294 1.29057 1.63225
lowerneck -29.6593 2.22648 -2.00696
upperneck 20.3934 5.62386 -5.68856
head 11.6882 1.58871 -0.783193
rclavicle 2.5842e-015 -3.24019e-014
rhumerus -33.8111 25.1067 -88.6987
rradius 61.25
rwrist -11.5138
rhand -9.79332 -29.5853
rfingers 7.12502
rthumb 16.1827 -58.9298
lclavicle 2.5842e-015 -3.24019e-014
lhumerus -37.5969 -40.4811 89.2161
lradius 75.8267
lwrist -2.59335
lhand -28.0126 -27.5162
lfingers 7.12502
lthumb -1.3981 2.45899
rfemur -36.962 -13.0848 4.00188
rtibia 58.7826
rfoot -30.9889 -1.01866
rtoes -11.9174
lfemur -55.1817 17.5213 -21.6422
ltibia 52.0388
lfoot -9.28028 8.9367
ltoes -8.1718
195
root -19.102 15.0662 2.4541 -290.95 82.2465 52.6534
lowerback 18.6852 2.56721 -7.78707
upperback 7.44395 2.41494 -1.89035
thorax -2.60461 1.30509 1.88606
lowerneck -29.4257 2.14224 -2.05521
upperneck 20.3314 5.40286 -5.32336
head 11.5998 1.54111 -0.680833
rclavicle -1.07344e-014 1.61016e-014
rhumerus -34.103 25.5775 -88.7431
rradius 60.7078
rwrist -11.0253
rhand -10.1696 -28.693
rfingers 7.12502
rthumb 15.8203 -58.0666
lclavicle -1.07344e-014 1.61016e-014
lhumerus -37.2203 -42.9268 88.5481
lradius 76.1634
lwrist -1.63703
lhand -26.9848 -27.0003
lfingers 7.12502
lthumb -0.405438 2.97905
rfemur -36.5089 -13.308 3.42628
rtibia 59.8568
rfoot -30.3571 -0.0938656
rtoes -11.9266
lfemur -55.1207 17.2837 -21.6288
ltibia 53.4622
lfoot -10.0816 8.91185
ltoes -8.34914
196
root -18.9508 15.0457 2.32876 -294.943 82.2205 48.9938
lowerback 18.8366 2.90537 -8.26661
upperback 7.52917 2.76792 -1.95209
thorax -2.6307 1.47529 2.00796
lowerneck -29.1072 1.86217 -2.22314
upperneck 20.1088 4.90116 -4.7971
head 11.4226 1.38585 -0.550415
rclavicle 1.99779e-014 1.66979e-014
rhumerus -34.1708 25.7288 -88.5742
rradius 60.5467
rwrist -10.64
rhand -10.431 -28.6706
rfingers 7.12502
rthumb 15.5685 -58.064
lclavicle 1.99779e-014 1.66979e-014
lhumerus -36.175 -45.8218 87.4687
lradius 76.3505
lwrist -0.849129
lhand -25.8157 -25.8465
lfingers 7.12502
lthumb 0.723795 4.13198
rfemur -36.4856 -13.2482 2.8331
rtibia 61.345
rfoot -28.9074 0.965712
rtoes -12.1499
lfemur -54.7654 17.3929 -21.5421
ltibia 54.7471
lfoot -11.4129 8.93117
ltoes -6.62378
